<svg xmlns="http://www.w3.org/2000/svg" width="445" height="417.95" viewBox="0 0 65 61.049">
    <defs>
        <style>.a{fill:#ffffff;}</style>
    </defs>
    <g transform="translate(-71.947 -52.363)">
        <path class="a"
              d="M.766,8.935V8.228h.708l-.236-.236.472-.708.472-.472h.236l.236-.236H2.417L3.6,5.869,4.3,5.4H4.54l.236.236L5.484,5.4H5.012l-.236-1.18L6.9,3.982h.708l3.774-.944.236.236V3.038h1.651l.708-.236h.236l1.415,1.415h0l-.236.236v.472l-.472.944-.708,1.887-2.123,3.538-.708.472h.236l-.236.472h-.236v.472h0v.472L9.494,14.361v-.236l-.236.236h.236l-.708.708-.708.236-.236.236H7.135v.236H3.6l-.236-.236v.236L2.417,15.3v-.236l-.944-.708v-.236H1.238l-.472-.472v-.236L.53,12.946v-.472l-.236.236V10.823l-.236-.236L.766,8.935M6.427,5.161,5.72,5.4l.708-.236m.236-.236v.236h.472l-.472-.236m2.595-.472v0l-.472-.236v.236H8.551l-.708.472,2.595-.472L10.2,4.217v.236H9.258m2.359-.236ZM13.74,5.633h0ZM13.5,6.1h-.236v.236L13.5,6.1M12.8,8.464h-.236V8.228l-.236.472h.236l.236-.236m-.708.472Z"
              transform="translate(85.698 83.245)"/>
        <path class="a"
              d="M3.693,11.057l-.236-.236v.236l-.472-.708-.236-.708H2.513l-.236-.472L1.569,7.282.862,6.339,1.1,6.1H.862L.626,5.395.154,4.451.39,4.215H.154V3.979L1.1,2.8h.472l.472.236L2.277,2.8l.472.472L2.513,2.8l1.651.472,1.651.472h.472l.472.236h.708l.708.236v.472l.236-.236V4.215l1.18.472.708.236.236.236v.236l.472.236-.236-.236.708-.944,1.887,1.415.708.944a4.86,4.86,0,0,1,1.651,4.01h-.236v.236l.236-.236-.472,1.887-.472.236h.236l-.472.708A4.733,4.733,0,0,1,10.3,16.011,7.067,7.067,0,0,1,6.052,14.6l-.472-.944-.472-.236V13.18H4.872L4.4,12.944l-.944-1.651.236-.236M.862,4.687h0m10.616,1.18.472.472-.472-.472m.708.472.236.236V6.339ZM14.072,8.7l.236-.236h-.472l.236-.236h-.236V7.754l-.708-.472,1.18,2.123L14.072,8.7m.236,2.123Zm-1.651,3.3h0Zm-3.539.708H8.882l.236-.236H8.882l-.236.236Zm-.708-.472h0v0Z"
              transform="translate(108.248 83.483)"/>
        <path class="a"
              d="M.343,19.254l.236-1.415.236-.472H.579l.236-.708.236-.472.236-.472.236-.236-.236-.236.944-1.887H1.994l1.18-1.887.236-.708.472-.236-.236-.236.472-.708H3.881l.472-.708.472-.236H4.589l.944-1.651.236-.944L6,5.808h.472l1.18-3.067L9.071,6.515V5.808h1.18l.944,2.359.472,1.415a17.714,17.714,0,0,1,1.651,4.246v.236h0l.708,1.887v.236l.236.944a6.231,6.231,0,0,1,.236,5.426A7.519,7.519,0,0,1,10.251,26.8H9.071l.236.236-.708.236-.236-.236-.472.236h0l-.472.236L4.825,26.8h.236l-.472-.236V26.8l-.944-.472-.708-.708H2.7l-.708-.944L.579,22.085.107,20.434.343,20.2h0l-.236-.944ZM9.307,6.987l.236.708-.236-.708m.472,1.18.236.472-.236-.472m1.651,4.246-.236-.944.236-.236h-.236v-.472l-.236-.472-.708-.708,1.415,3.3v-.472Zm2.123,7.313v0Zm0,.944h0v0Zm-.472,1.887h0Zm-.472.944v0l-.472.472h.236l.236-.472"
              transform="translate(97.208 85.901)"/>
        <path class="a"
              d="M61.7,29.941a17.239,17.239,0,0,1-9.436,5.19A19.251,19.251,0,0,1,34.8,28.525l-2.359-3.774A19.873,19.873,0,0,1,26.075,32.3l-.708.236-1.18.472v.236A18.13,18.13,0,0,1,9.8,34.423L7.439,33.007h0c-3.067-1.887-3.067-2.359-5.19-4.718C-1.525,22.156-.582,13.663,5.316,9.417,8.383,7.294,12.157,6.35,15.46,7.766A7.989,7.989,0,0,1,19.706,10.6a7.653,7.653,0,0,1,1.887,5.426,7.461,7.461,0,0,1-1.887,5.19,6.27,6.27,0,0,1-4.954,2.359h-1.18l-1.651-.236a5.685,5.685,0,0,1-2.359-2.359,4.3,4.3,0,0,1,1.651-5.426,4.681,4.681,0,0,1,5.9.944l.472.944a4.03,4.03,0,0,0,0-3.3c-.472-1.415-1.887-2.359-3.3-3.067-1.415-.944-4.246-.708-6.133.472-1.651.944-2.123,1.415-3.3,3.774l-.472.472-.708,2.595h0c-.472,3.3,0-.236.236,3.539a10,10,0,0,0,4.01,7.313A12.87,12.87,0,0,0,15.7,31.828h0l2.831-.236h-.472A15.56,15.56,0,0,0,24.188,29c1.887-.944,3.539-3.3,4.246-4.482l.472-1.415c1.18-1.415,1.415-4.01,1.651-6.133V12.72l-.708-.236-1.18-.944-1.18-2.595A5.481,5.481,0,0,1,29.614,3.52a5.367,5.367,0,0,1,5.9.472,5.072,5.072,0,0,1-1.18,8.728v.236L34.1,14.607v1.18a18.694,18.694,0,0,0,1.415,6.841l.236.708c1.415,2.359,3.539,5.426,6.369,6.369-1.18-.236,1.18.944,2.123,1.18h.472a10.839,10.839,0,0,0,5.426.708l2.831-.236c.944-.472,2.831-.944,4.01-1.887l1.887-1.415-.472.236a10.869,10.869,0,0,0,3.067-6.841A12.08,12.08,0,0,0,59.574,13.9l-.472-.236A7.324,7.324,0,0,0,52.733,10.6a6.131,6.131,0,0,0-5.662,3.774,6.552,6.552,0,0,0,.708,4.246l.472-1.179.944-1.415a4.857,4.857,0,0,1,4.01-.472,4.8,4.8,0,0,1,2.123,2.831l.236.236a4.447,4.447,0,0,1-1.415,3.3c-.944.944-2.359.944-3.539,1.179l-1.887-.708-1.18-.472.472.472a6.967,6.967,0,0,1-3.774-5.426A7.748,7.748,0,0,1,46.6,10.361,10.773,10.773,0,0,1,53.2,7.766l3.539.708.472.708h.236a11.34,11.34,0,0,1,4.482,3.774,15.877,15.877,0,0,0-3.3-3.539c-1.651-.708-.944-.708.236,0A6.48,6.48,0,0,1,61.7,11.068C65,15.315,64.764,18.381,65,20.5a16.749,16.749,0,0,1-3.3,9.436M6.731,31.592l.472.236-.472-.236M6.024,10.125l-.708.472.708-.472M32.445,22.156V21.92h0Zm30.9-6.134-.472-.944.472.944m.708,5.426-.236-3.3.236,1.415ZM63.82,17.91l-.472-1.415Zm0,5.19.236-1.415L63.82,23.1m-.708,2.123L61.7,28.289l1.18-2.123.236-.944m-29.724-.944c.944,2.831,3.3,4.718,4.718,6.134l.472.708,1.18.472,2.595,1.651-.236-.236,4.01,1.415-.472-.236a13.47,13.47,0,0,0,6.841-.236l-3.3.472A17.009,17.009,0,0,1,41.173,32.3a16.936,16.936,0,0,1-8.021-8.728l.236.944v-.236m-8.257,7.313h0ZM2.721,13.9l.236-.472v.236ZM6.967,9.417h0m6.841-.944,1.18.236-1.18-.236m5.426,11.559v0ZM10.27,20.5l2.595,2.123-.708-.236h1.18a2.974,2.974,0,0,1-3.067-3.067V20.5m52.37-6.133L62.4,13.9l.236.472"
              transform="translate(71.947 49.502)"/>
    </g>
</svg>