<svg xmlns="http://www.w3.org/2000/svg" width="32.276" height="41.336" viewBox="0 0 32.276 41.336"><defs><style>.a{fill:#ed6e2b;}</style></defs><g transform="translate(-56.112)"><g transform="translate(62.584 9.707)"><path class="a" d="M158.884,120.239a.606.606,0,0,0-.606.606v27.182a.042.042,0,0,1-.042.042H136.88a.606.606,0,1,0,0,1.211h21.357a1.254,1.254,0,0,0,1.253-1.253V120.845A.606.606,0,0,0,158.884,120.239Z" transform="translate(-136.274 -120.239)"/></g><g transform="translate(56.112)"><path class="a" d="M87.135,2.589H81.561L79.529.557A1.887,1.887,0,0,0,78.186,0H57.365a1.254,1.254,0,0,0-1.253,1.253V37.495a1.254,1.254,0,0,0,1.253,1.253H58.7v1.336a1.254,1.254,0,0,0,1.253,1.253H87.135a1.254,1.254,0,0,0,1.253-1.253V3.841A1.254,1.254,0,0,0,87.135,2.589ZM78.68,1.42l5.7,5.7H78.722a.042.042,0,0,1-.042-.042Zm8.5,38.663a.042.042,0,0,1-.042.042H59.953a.042.042,0,0,1-.042-.042V38.748H60.6a.606.606,0,1,0,0-1.211H57.365a.042.042,0,0,1-.042-.042V1.253a.042.042,0,0,1,.042-.042h20.1V7.077A1.254,1.254,0,0,0,78.722,8.33h6.472a.606.606,0,0,0,.606-.606V7.613a1.888,1.888,0,0,0-.557-1.343L82.772,3.8h4.363a.042.042,0,0,1,.042.042Z" transform="translate(-56.112 0)"/></g><g transform="translate(59.995 6.74)"><g transform="translate(0)"><path class="a" d="M112.361,83.66a.605.605,0,0,0-.856,0l-3.425,3.425a.042.042,0,0,1-.059,0l-1.366-1.366h1.051a.606.606,0,0,0,0-1.211h-1.6a1.243,1.243,0,0,0-.54.124l-.326-.326a.605.605,0,0,0-.856.856l.476.476c0,.04-.006.081-.006.122v3.883a1.254,1.254,0,0,0,1.253,1.253h3.883a1.254,1.254,0,0,0,1.253-1.253V85.633l1.117-1.117A.605.605,0,0,0,112.361,83.66Zm-2.328,5.985a.042.042,0,0,1-.042.042h-3.883a.042.042,0,0,1-.042-.042v-2.8l1.1,1.1a1.254,1.254,0,0,0,1.772,0l1.1-1.1v2.8Z" transform="translate(-104.208 -83.482)"/></g></g><g transform="translate(60.642 16.179)"><g transform="translate(0)"><path class="a" d="M117.361,200.4h-3.883a1.254,1.254,0,0,0-1.253,1.253v3.883a1.254,1.254,0,0,0,1.253,1.253h3.883a1.254,1.254,0,0,0,1.253-1.253v-3.883A1.254,1.254,0,0,0,117.361,200.4Zm.042,5.136a.042.042,0,0,1-.042.042h-3.883a.042.042,0,0,1-.042-.042v-3.883a.042.042,0,0,1,.042-.042h3.883a.042.042,0,0,1,.042.042Z" transform="translate(-112.225 -200.403)"/></g></g><g transform="translate(60.642 24.593)"><g transform="translate(0)"><path class="a" d="M117.361,304.613h-3.883a1.254,1.254,0,0,0-1.253,1.253v3.883A1.254,1.254,0,0,0,113.478,311h3.883a1.254,1.254,0,0,0,1.253-1.253v-3.883A1.254,1.254,0,0,0,117.361,304.613Zm.042,5.136a.042.042,0,0,1-.042.042h-3.883a.042.042,0,0,1-.042-.042v-3.883a.042.042,0,0,1,.042-.042h3.883a.042.042,0,0,1,.042.042Z" transform="translate(-112.225 -304.613)"/></g></g><g transform="translate(69.056 9.061)"><path class="a" d="M222.865,112.226H217.04a.606.606,0,0,0,0,1.211h5.825a.606.606,0,0,0,0-1.211Z" transform="translate(-216.435 -112.226)"/></g><g transform="translate(69.056 11.649)"><path class="a" d="M228.043,144.291h-11a.606.606,0,0,0,0,1.211h11a.606.606,0,1,0,0-1.211Z" transform="translate(-216.435 -144.291)"/></g><g transform="translate(69.056 17.474)"><path class="a" d="M222.865,216.436H217.04a.606.606,0,0,0,0,1.211h5.825a.606.606,0,0,0,0-1.211Z" transform="translate(-216.435 -216.436)"/></g><g transform="translate(69.056 20.063)"><path class="a" d="M228.043,248.5h-11a.606.606,0,0,0,0,1.211h11a.606.606,0,1,0,0-1.211Z" transform="translate(-216.435 -248.5)"/></g><g transform="translate(69.056 25.887)"><path class="a" d="M222.865,320.645H217.04a.606.606,0,0,0,0,1.211h5.825a.606.606,0,0,0,0-1.211Z" transform="translate(-216.435 -320.645)"/></g><g transform="translate(69.056 28.476)"><path class="a" d="M228.043,352.709h-11a.606.606,0,0,0,0,1.211h11a.606.606,0,1,0,0-1.211Z" transform="translate(-216.435 -352.709)"/></g></g></svg>