<svg xmlns="http://www.w3.org/2000/svg" width="40.59" height="40.59" viewBox="0 0 40.59 40.59"><defs><style>.a{fill:#ed6e2b;}</style></defs><g transform="translate(-16 -16)"><path class="a" d="M55.914,190.325h-2.03V180.177H52.531v10.148H41.987a2.967,2.967,0,0,0-2.112.875,1.622,1.622,0,0,1-1.155.478H33.869a1.622,1.622,0,0,1-1.155-.478,2.967,2.967,0,0,0-2.112-.875H20.059V170.706a1.355,1.355,0,0,1,1.353-1.353V168a2.709,2.709,0,0,0-2.706,2.706v19.619h-2.03A.677.677,0,0,0,16,191v2.03a2.709,2.709,0,0,0,2.706,2.706H53.884a2.709,2.709,0,0,0,2.706-2.706V191A.677.677,0,0,0,55.914,190.325Zm-.677,2.706a1.355,1.355,0,0,1-1.353,1.353H18.706a1.355,1.355,0,0,1-1.353-1.353v-1.353H30.6a1.623,1.623,0,0,1,1.155.478,2.967,2.967,0,0,0,2.112.875h4.852a2.967,2.967,0,0,0,2.112-.875,1.622,1.622,0,0,1,1.155-.478h13.25Z" transform="translate(0 -139.146)"/><path class="a" d="M400,344h1.353v6.089H400Z" transform="translate(-351.528 -300.263)"/><path class="a" d="M105.471,104H98.706A2.709,2.709,0,0,0,96,106.706v23.678h1.353V106.706a1.355,1.355,0,0,1,1.353-1.353h6.765Z" transform="translate(-73.235 -80.558)"/><path class="a" d="M128,136h1.353v1.353H128Z" transform="translate(-102.529 -109.852)"/><path class="a" d="M160,136h1.353v1.353H160Z" transform="translate(-131.823 -109.852)"/><path class="a" d="M192,136h1.353v1.353H192Z" transform="translate(-161.117 -109.852)"/><path class="a" d="M130.03,216a2.03,2.03,0,1,0,2.03,2.03A2.03,2.03,0,0,0,130.03,216Zm0,2.706a.677.677,0,1,1,.677-.677A.677.677,0,0,1,130.03,218.706Z" transform="translate(-102.529 -183.087)"/><path class="a" d="M192,248h1.353v1.353H192Z" transform="translate(-161.117 -212.381)"/><path class="a" d="M130.03,280a2.03,2.03,0,1,0,2.03,2.03A2.03,2.03,0,0,0,130.03,280Zm0,2.706a.676.676,0,1,1,.677-.677A.677.677,0,0,1,130.03,282.706Z" transform="translate(-102.529 -241.675)"/><path class="a" d="M192,280h2.03v1.353H192Z" transform="translate(-161.117 -241.675)"/><path class="a" d="M192,312h12.854v1.353H192Z" transform="translate(-161.117 -270.969)"/><path class="a" d="M130.03,344a2.03,2.03,0,1,0,2.03,2.03A2.03,2.03,0,0,0,130.03,344Zm0,2.706a.676.676,0,1,1,.677-.676A.677.677,0,0,1,130.03,346.706Z" transform="translate(-102.529 -300.263)"/><path class="a" d="M192,344h12.854v1.353H192Z" transform="translate(-161.117 -300.263)"/><path class="a" d="M192,376h9.471v1.353H192Z" transform="translate(-161.117 -329.557)"/><path class="a" d="M320,376h4.059v1.353H320Z" transform="translate(-278.293 -329.557)"/><path class="a" d="M192,216h1.353v1.353H192Z" transform="translate(-161.117 -183.087)"/><path class="a" d="M128,168h6.765v1.353H128Z" transform="translate(-102.529 -139.146)"/><path class="a" d="M243.619,16H227.383A3.386,3.386,0,0,0,224,19.383V36.3a3.386,3.386,0,0,0,3.383,3.383H235.5v4.059a.677.677,0,0,0,1.155.478l4.537-4.537h2.426A3.386,3.386,0,0,0,247,36.3V19.383A3.386,3.386,0,0,0,243.619,16Zm2.03,20.3a2.032,2.032,0,0,1-2.03,2.03h-2.706a.677.677,0,0,0-.478.2L236.854,42.1V39a.677.677,0,0,0-.677-.677h-8.795a2.032,2.032,0,0,1-2.03-2.03V19.383a2.032,2.032,0,0,1,2.03-2.03h16.236a2.032,2.032,0,0,1,2.03,2.03Z" transform="translate(-190.411)"/><path class="a" d="M294.8,48h-1.421A5.384,5.384,0,0,0,288,53.378v1.387a.677.677,0,0,0,.677.677h2.706a.676.676,0,0,0,.676-.677V53.378a1.32,1.32,0,0,1,1.319-1.319H294.8a1.319,1.319,0,0,1,.933,2.252l-2.1,2.1a5.343,5.343,0,0,0-1.575,3.8.677.677,0,0,0,.677.677h2.706a.677.677,0,0,0,.677-.677,1.31,1.31,0,0,1,.386-.933l2.1-2.1A5.378,5.378,0,0,0,294.8,48Zm2.846,8.224-2.1,2.1a2.655,2.655,0,0,0-.7,1.213h-1.383a4,4,0,0,1,1.123-2.17l2.1-2.1a2.672,2.672,0,0,0-1.889-4.561h-1.421a2.675,2.675,0,0,0-2.672,2.672v.71h-1.353v-.71a4.03,4.03,0,0,1,4.025-4.025H294.8a4.025,4.025,0,0,1,2.846,6.871Z" transform="translate(-248.999 -29.294)"/><path class="a" d="M339.383,216h-2.706a.676.676,0,0,0-.677.677v2.706a.676.676,0,0,0,.677.676h2.706a.677.677,0,0,0,.677-.676v-2.706A.677.677,0,0,0,339.383,216Zm-.676,2.706h-1.353v-1.353h1.353Z" transform="translate(-292.94 -183.087)"/></g></svg>