<svg xmlns="http://www.w3.org/2000/svg" width="36.914" height="42" viewBox="0 0 36.914 42"><defs><style>.a{fill:#ed6e2b;}</style></defs><g transform="translate(-31)"><path class="a" d="M53.764,42H32.846A1.848,1.848,0,0,1,31,40.154V9.368a1.848,1.848,0,0,1,1.846-1.846h3.536a.615.615,0,0,1,0,1.23H32.846a.616.616,0,0,0-.615.615V40.154a.616.616,0,0,0,.615.615H53.764a.616.616,0,0,0,.615-.615V25.84H40.229a1.848,1.848,0,0,1-1.846-1.846V1.846A1.848,1.848,0,0,1,40.229,0H58.686a1.848,1.848,0,0,1,1.846,1.846V8A.615.615,0,1,1,59.3,8V1.846a.616.616,0,0,0-.615-.615H40.229a.616.616,0,0,0-.615.615V23.994a.616.616,0,0,0,.615.615H58.686a.616.616,0,0,0,.615-.615V10.459a.615.615,0,0,1,.615-.615h3.691a.615.615,0,1,1,0,1.23H60.531v2.461h3.076a.615.615,0,0,1,0,1.23H60.531v2.461h3.076a.615.615,0,1,1,0,1.23H60.531v2.461h3.076a.615.615,0,1,1,0,1.23H60.531v1.846a1.838,1.838,0,0,1-.105.615h3.182a.615.615,0,1,1,0,1.23h-8V28.3h8a.615.615,0,0,1,0,1.23h-8v3.855H66.068a.616.616,0,0,0,.615-.615V5.677a.616.616,0,0,0-.615-.615H62.377a.615.615,0,1,1,0-1.23h3.691a1.848,1.848,0,0,1,1.846,1.846V32.771a1.848,1.848,0,0,1-1.846,1.846H55.609v3.691h6.768a.616.616,0,0,0,.615-.615v-1.23a.615.615,0,0,1,1.23,0v1.23a1.848,1.848,0,0,1-1.846,1.846H55.609v.615A1.848,1.848,0,0,1,53.764,42Zm3.691-18.621h-16a.615.615,0,0,1-.615-.615V20.626c0-3.161,2.09-3.885,3.616-4.413,1.26-.436,1.975-.73,2.1-1.677a5.145,5.145,0,0,1-2.251-4.253V7.747a5.147,5.147,0,0,1,10.293,0v2.537a5.145,5.145,0,0,1-2.251,4.253c.126.947.841,1.241,2.1,1.677,1.526.528,3.616,1.252,3.616,4.413v2.137a.615.615,0,0,1-.615.615Zm-15.381-1.23H56.84V20.626c0-2.285-1.292-2.732-2.788-3.25-1.1-.382-2.437-.844-2.833-2.256a5.151,5.151,0,0,1-3.523,0c-.4,1.413-1.728,1.874-2.833,2.256-1.5.518-2.788.965-2.788,3.25ZM49.457,3.831a3.921,3.921,0,0,0-3.916,3.916v2.537a3.916,3.916,0,0,0,7.833,0V7.747a3.921,3.921,0,0,0-3.916-3.916Z"/></g></svg>