<svg xmlns="http://www.w3.org/2000/svg" width="41.585" height="41.576" viewBox="0 0 41.585 41.576"><defs><style>.a{fill:#ed6e2b;}</style></defs><g transform="translate(-2 -2)"><path class="a" d="M12.852,20H8.693A.693.693,0,0,0,8,20.693v4.159a.693.693,0,0,0,.693.693h4.159a.693.693,0,0,0,.693-.693V20.693A.693.693,0,0,0,12.852,20Zm-.693,4.159H9.386V21.386h2.772Z" transform="translate(-1.841 -5.524)"/><path class="a" d="M20.693,25.545h4.159a.693.693,0,0,0,.693-.693V20.693A.693.693,0,0,0,24.852,20H20.693a.693.693,0,0,0-.693.693v4.159A.693.693,0,0,0,20.693,25.545Zm.693-4.159h2.772v2.772H21.386Z" transform="translate(-5.524 -5.524)"/><path class="a" d="M12.852,30H8.693A.693.693,0,0,0,8,30.693v4.159a.693.693,0,0,0,.693.693h4.159a.693.693,0,0,0,.693-.693V30.693A.693.693,0,0,0,12.852,30Zm-.693,4.159H9.386V31.386h2.772Z" transform="translate(-1.841 -8.593)"/><path class="a" d="M12.852,40H8.693A.693.693,0,0,0,8,40.693v4.159a.693.693,0,0,0,.693.693h4.159a.693.693,0,0,0,.693-.693V40.693A.693.693,0,0,0,12.852,40Zm-.693,4.159H9.386V41.386h2.772Z" transform="translate(-1.841 -11.662)"/><path class="a" d="M36.655,18.824V6.852A3.47,3.47,0,0,0,33.19,3.386H31.8V2H30.417V3.386H26.259V2H24.872V3.386H20.714V2H19.328V3.386H15.169V2H13.783V3.386H9.624V2H8.238V3.386H5.466A3.47,3.47,0,0,0,2,6.852V34.576a3.47,3.47,0,0,0,3.466,3.466H19.7A13.16,13.16,0,1,0,36.655,18.824ZM5.466,4.772H8.238V6.159H9.624V4.772h4.159V6.159h1.386V4.772h4.159V6.159h1.386V4.772h4.159V6.159h1.386V4.772h4.159V6.159H31.8V4.772H33.19a2.079,2.079,0,0,1,2.079,2.079v3.466H3.386V6.852A2.079,2.079,0,0,1,5.466,4.772Zm0,31.883a2.079,2.079,0,0,1-2.079-2.079V11.7H35.269v6.483a13.093,13.093,0,0,0-15.248,4.178V22.1a.693.693,0,0,0-.693-.693H15.169a.693.693,0,0,0-.693.693v4.159a.693.693,0,0,0,.693.693h2.558a12.92,12.92,0,0,0-.3,1.386h-2.26a.693.693,0,0,0-.693.693V33.19a.693.693,0,0,0,.693.693h2.558a13.069,13.069,0,0,0,1.1,2.772ZM18.635,24.572c-.161.324-.313.654-.448.994H15.862V22.793h2.772ZM17.429,32.5H15.862V29.724h1.422c-.012.231-.035.459-.035.693a13.1,13.1,0,0,0,.181,2.079ZM36.894,40.25l-1.025-1.775-1.2.693,1.022,1.771a11.67,11.67,0,0,1-4.581,1.226V40.121H29.724v2.044a11.67,11.67,0,0,1-4.581-1.226l1.022-1.771-1.2-.693L23.94,40.25a11.882,11.882,0,0,1-3.355-3.355l1.776-1.025-.693-1.2L19.9,35.691A11.673,11.673,0,0,1,18.67,31.11h2.044V29.724H18.67A11.673,11.673,0,0,1,19.9,25.143l1.772,1.022.693-1.2L20.585,23.94a11.882,11.882,0,0,1,3.355-3.355l1.025,1.775,1.2-.693L25.143,19.9a11.67,11.67,0,0,1,4.581-1.226v2.044H31.11V18.67A11.67,11.67,0,0,1,35.691,19.9l-1.022,1.771,1.2.693,1.025-1.775A11.882,11.882,0,0,1,40.25,23.94l-1.776,1.025.693,1.2,1.772-1.022a11.673,11.673,0,0,1,1.226,4.581H40.121V31.11h2.044a11.673,11.673,0,0,1-1.226,4.581l-1.772-1.022-.693,1.2,1.776,1.025A11.882,11.882,0,0,1,36.894,40.25Z"/><path class="a" d="M42.772,37.365V31H41.386v6.365a2.074,2.074,0,1,0,2.645,2.645h3.593V38.624H44.031a2.079,2.079,0,0,0-1.259-1.259Zm-.693,2.645a.693.693,0,1,1,.693-.693A.693.693,0,0,1,42.079,40.01Z" transform="translate(-11.662 -8.9)"/></g></svg>