<svg xmlns="http://www.w3.org/2000/svg" width="41.708" height="41.708" viewBox="0 0 41.708 41.708"><defs><style>.a{fill:#ed6e2b;}</style></defs><g transform="translate(-16 -16)"><path class="a" d="M432,192h2.781v1.39H432Z" transform="translate(-379.853 -160.707)"/><path class="a" d="M432,232h2.781v1.39H432Z" transform="translate(-379.853 -197.231)"/><path class="a" d="M432,272h2.781v1.39H432Z" transform="translate(-379.853 -233.756)"/><path class="a" d="M296,72h9.732v1.39H296Z" transform="translate(-255.67 -51.134)"/><path class="a" d="M296,112h14.6v1.39H296Z" transform="translate(-255.67 -87.658)"/><path class="a" d="M400,152h5.561v1.39H400Z" transform="translate(-350.634 -124.183)"/><path class="a" d="M296,144h1.39v1.39H296Z" transform="translate(-255.67 -116.878)"/><path class="a" d="M50.062,156.171h-.7v20.854H36.244l11.205-2.8a.7.7,0,0,0,.527-.674V152.7a.7.7,0,0,0-.864-.674l-11.27,2.817a4.164,4.164,0,0,0-2.8,2.343,3.464,3.464,0,0,0-2.448-1.011H16.7a.7.7,0,0,0-.7.7V181.2a.7.7,0,0,0,.7.7H50.062a.7.7,0,0,0,.7-.7v-24.33A.7.7,0,0,0,50.062,156.171ZM17.39,180.5v-2.085H30.6a2.088,2.088,0,0,1,2.085,2.085Zm15.293-2.779a3.458,3.458,0,0,0-2.085-.7H17.39V157.561H30.6a2.088,2.088,0,0,1,2.085,2.085Zm1.39-18.075v-.762a2.776,2.776,0,0,1,2.106-2.7l10.406-2.6v19.421l-10.743,2.686a4.165,4.165,0,0,0-1.769.935ZM49.366,180.5H34.073a2.088,2.088,0,0,1,2.085-2.085H49.366Z" transform="translate(0 -124.183)"/><path class="a" d="M0,0H8.793V1.39H0Z" transform="matrix(0.949, -0.316, 0.316, 0.949, 35.942, 34.12)"/><path class="a" d="M0,0H8.793V1.39H0Z" transform="matrix(0.949, -0.316, 0.316, 0.949, 35.941, 37.596)"/><path class="a" d="M0,0H8.793V1.39H0Z" transform="matrix(0.949, -0.316, 0.316, 0.949, 35.94, 41.073)"/><path class="a" d="M0,0H8.793V1.39H0Z" transform="matrix(0.949, -0.316, 0.316, 0.949, 35.939, 44.55)"/><path class="a" d="M0,0H8.793V1.39H0Z" transform="matrix(0.949, -0.316, 0.316, 0.949, 35.939, 48.027)"/><path class="a" d="M56,240H66.427v1.39H56Z" transform="translate(-36.524 -204.536)"/><path class="a" d="M56,280H66.427v1.39H56Z" transform="translate(-36.524 -241.061)"/><path class="a" d="M56,320H66.427v1.39H56Z" transform="translate(-36.524 -277.585)"/><path class="a" d="M56,360H66.427v1.39H56Z" transform="translate(-36.524 -314.109)"/><path class="a" d="M56,400H66.427v1.39H56Z" transform="translate(-36.524 -350.634)"/><path class="a" d="M20.518,30.6a4.523,4.523,0,0,0,4.518-4.518c0-.007,0-.013,0-.02a1.828,1.828,0,0,1,2.086,0c0,.007,0,.013,0,.02a4.518,4.518,0,1,0,9.037,0c0-.117-.006-.233-.015-.348h.015V18.781a2.781,2.781,0,1,0-5.561,0v.7h1.39v-.7a1.39,1.39,0,1,1,2.781,0v4.043a4.513,4.513,0,0,0-7.4,1.787,3.259,3.259,0,0,0-2.578,0,4.513,4.513,0,0,0-7.4-1.787V18.781a1.39,1.39,0,0,1,2.781,0v.7h1.39v-.7a2.781,2.781,0,0,0-5.561,0v6.951h.015c-.009.115-.015.231-.015.348A4.523,4.523,0,0,0,20.518,30.6Zm11.122-7.646a3.128,3.128,0,1,1-3.128,3.128,3.128,3.128,0,0,1,3.128-3.128Zm-11.122,0a3.128,3.128,0,1,1-3.128,3.128A3.128,3.128,0,0,1,20.518,22.951Z" transform="translate(0)"/><path class="a" d="M0,0H2.949V1.39H0Z" transform="translate(18.287 25.935) rotate(-45)"/><path class="a" d="M0,0H2.949V1.39H0Z" transform="translate(29.408 25.936) rotate(-45)"/><path class="a" d="M283.955,21.07,279.089,16.2a.7.7,0,0,0-.492-.2H264.7a.7.7,0,0,0-.7.7V28.512h1.39V17.39H277.9v4.171a.7.7,0,0,0,.7.7h4.171V41.72H278.6v1.39h4.866a.7.7,0,0,0,.7-.7V21.561a.7.7,0,0,0-.2-.492Zm-4.662-.2V18.373l2.493,2.493Z" transform="translate(-226.451 0)"/></g></svg>