<svg width="41" height="41" viewBox="0 0 35 35" fill="none" xmlns="http://www.w3.org/2000/svg">
<path d="M32.875 7.25C32.4219 7.25 31.9874 7.42999 31.667 7.75036C31.3467 8.07074 31.1667 8.50526 31.1667 8.95833V26.0417C31.1667 27.4009 30.6267 28.7045 29.6656 29.6656C28.7045 30.6267 27.4009 31.1667 26.0417 31.1667H8.95835C8.50528 31.1667 8.07075 31.3467 7.75038 31.667C7.43001 31.9874 7.25002 32.4219 7.25002 32.875C7.25002 33.3281 7.43001 33.7626 7.75038 34.083C8.07075 34.4034 8.50528 34.5833 8.95835 34.5833H26.0417C28.3071 34.5833 30.4797 33.6834 32.0816 32.0815C33.6834 30.4797 34.5834 28.3071 34.5834 26.0417V8.95833C34.5834 8.50526 34.4034 8.07074 34.083 7.75036C33.7626 7.42999 33.3281 7.25 32.875 7.25ZM27.75 22.625V5.54167C27.75 4.18243 27.2101 2.87887 26.2489 1.91775C25.2878 0.956622 23.9843 0.416668 22.625 0.416668H5.54169C4.18245 0.416668 2.87889 0.956622 1.91776 1.91775C0.956641 2.87887 0.416687 4.18243 0.416687 5.54167V22.625C0.416687 23.9842 0.956641 25.2878 1.91776 26.2489C2.87889 27.21 4.18245 27.75 5.54169 27.75H22.625C23.9843 27.75 25.2878 27.21 26.2489 26.2489C27.2101 25.2878 27.75 23.9842 27.75 22.625V22.625ZM14.0834 3.83333H17.5V12.1358L16.885 11.6233C16.5781 11.3677 16.1912 11.2276 15.7917 11.2276C15.3922 11.2276 15.0053 11.3677 14.6984 11.6233L14.0834 12.1358V3.83333ZM3.83335 22.625V5.54167C3.83335 5.08859 4.01334 4.65407 4.33371 4.33369C4.65409 4.01332 5.08861 3.83333 5.54169 3.83333H10.6667V15.7917C10.6667 16.1182 10.7603 16.438 10.9364 16.713C11.1125 16.988 11.3637 17.2068 11.6603 17.3434C11.9569 17.4801 12.2865 17.5288 12.61 17.4839C12.9334 17.439 13.2373 17.3023 13.4854 17.09L15.7917 15.1596L18.0979 17.09C18.4074 17.3546 18.8012 17.5 19.2084 17.5C19.4555 17.4983 19.6997 17.4459 19.9259 17.3463C20.2224 17.209 20.4733 16.9896 20.649 16.7141C20.8246 16.4385 20.9175 16.1184 20.9167 15.7917V3.83333H22.625C23.0781 3.83333 23.5126 4.01332 23.833 4.33369C24.1534 4.65407 24.3334 5.08859 24.3334 5.54167V22.625C24.3334 23.0781 24.1534 23.5126 23.833 23.833C23.5126 24.1534 23.0781 24.3333 22.625 24.3333H5.54169C5.08861 24.3333 4.65409 24.1534 4.33371 23.833C4.01334 23.5126 3.83335 23.0781 3.83335 22.625Z" fill="#ED6E2B"/>
</svg>
